# Blender v2.79 (sub 1) OBJ File: ''
# www.blender.org
o Cone_Cone.002
v 0.123839 0.170450 0.209897
v -0.000000 -0.000000 0.686045
v 0.200375 0.065106 0.209897
v 0.200375 -0.065105 0.209896
v 0.186295 0.060531 0.154696
v 0.123839 -0.170449 0.209896
v -0.000000 -0.210686 0.209896
v 0.115137 -0.158472 0.154696
v -0.123839 -0.170449 0.209896
v -0.186295 -0.060530 0.154696
v -0.115137 -0.158472 0.154696
v -0.200375 -0.065105 0.209896
v -0.200375 0.065106 0.209897
v -0.123839 0.170450 0.209897
v -0.186295 0.060531 0.154696
v -0.000000 0.210687 0.209897
v 0.085784 -0.027872 0.124372
v 0.085784 0.027873 -0.505614
v 0.085784 0.027873 0.124372
v 0.053017 0.072973 0.124372
v -0.000000 0.090199 -0.505614
v -0.000000 0.090199 0.124372
v 0.186295 -0.060530 0.154696
v 0.053017 -0.072972 0.124372
v 0.085784 -0.027872 -0.505614
v -0.000000 -0.195882 0.154696
v -0.053017 0.072973 -0.505614
v -0.053017 0.072973 0.124372
v -0.000000 -0.090198 0.124372
v 0.053017 -0.072972 -0.505614
v -0.000000 0.195883 0.154696
v 0.115137 0.158472 0.154696
v -0.053017 -0.072972 0.124372
v -0.085784 -0.027872 0.124372
v -0.085784 0.027873 0.124372
v -0.115137 0.158473 0.154696
v -0.000000 0.000001 -0.522106
v 0.053017 0.072973 -0.505614
v -0.053017 -0.072972 -0.505614
v -0.000000 -0.090198 -0.505614
v -0.085784 0.027873 -0.505614
v -0.085784 -0.027872 -0.505614
vt 0.373447 0.419910
vt 0.250000 0.250000
vt 0.449741 0.314900
vt 0.449741 0.185100
vt 0.465921 0.310339
vt 0.373447 0.080090
vt 0.250000 0.039980
vt 0.374109 0.063293
vt 0.126553 0.080090
vt 0.039850 0.171901
vt 0.110783 0.074270
vt 0.050259 0.185100
vt 0.050259 0.314900
vt 0.126553 0.419910
vt 0.039850 0.328099
vt 0.250000 0.460020
vt 0.902807 0.200350
vt 0.902807 0.299650
vt 0.902807 0.299650
vt 0.844440 0.379985
vt 0.750000 0.410671
vt 0.750000 0.410671
vt 0.460150 0.171901
vt 0.844440 0.120015
vt 0.902807 0.200350
vt 0.240663 0.026001
vt 0.655560 0.379985
vt 0.655560 0.379985
vt 0.034079 0.189661
vt 0.750000 0.089329
vt 0.844440 0.120015
vt 0.259337 0.473999
vt 0.389217 0.425730
vt 0.750000 0.434013
vt 0.858160 0.398870
vt 0.925007 0.306863
vt 0.925007 0.193137
vt 0.858160 0.101130
vt 0.750000 0.065987
vt 0.641840 0.101130
vt 0.655560 0.120015
vt 0.574993 0.193137
vt 0.597193 0.200350
vt 0.574993 0.306863
vt 0.597193 0.299650
vt 0.641840 0.398870
vt 0.125891 0.436707
vt 0.750000 0.250000
vt 0.844440 0.379985
vt 0.655560 0.120015
vt 0.750000 0.089329
vt 0.597193 0.299650
vt 0.597193 0.200350
vt 0.465921 0.189661
vt 0.259337 0.026001
vt 0.110783 0.425731
vt 0.389217 0.074269
vt 0.125891 0.063293
vt 0.034079 0.310339
vt 0.374109 0.436707
vt 0.460150 0.328099
vt 0.240663 0.473999
vn 0.5862 0.8069 0.0726
vn 0.0000 -0.0000 1.0000
vn 0.9485 0.3082 0.0726
vn 0.9485 -0.3082 0.0726
vn 0.7182 0.2334 -0.6555
vn 0.5862 -0.8069 0.0726
vn 0.0000 -0.9974 0.0726
vn 0.4439 -0.6110 -0.6555
vn -0.5862 -0.8069 0.0726
vn -0.7182 -0.2334 -0.6555
vn -0.4439 -0.6110 -0.6555
vn -0.9485 -0.3082 0.0726
vn -0.9485 0.3082 0.0726
vn -0.5862 0.8069 0.0726
vn -0.7182 0.2334 -0.6555
vn -0.0000 0.9974 0.0726
vn 0.7095 -0.2305 -0.6659
vn 0.7717 0.2507 -0.5845
vn 0.7095 0.2305 -0.6659
vn 0.4385 0.6036 -0.6659
vn 0.0000 0.8114 -0.5845
vn -0.0000 0.7460 -0.6659
vn 0.7182 -0.2334 -0.6555
vn 0.4385 -0.6036 -0.6659
vn 0.7717 -0.2507 -0.5845
vn 0.0000 -0.7552 -0.6555
vn -0.4769 0.6565 -0.5845
vn -0.4385 0.6036 -0.6659
vn -0.0000 -0.7460 -0.6659
vn 0.4769 -0.6565 -0.5845
vn 0.0000 0.7552 -0.6555
vn 0.4439 0.6110 -0.6555
vn -0.4385 -0.6036 -0.6659
vn -0.7095 -0.2305 -0.6659
vn -0.7095 0.2305 -0.6659
vn -0.4439 0.6110 -0.6555
vn 0.0000 0.0000 -1.0000
vn 0.4769 0.6565 -0.5845
vn -0.4769 -0.6565 -0.5845
vn 0.0000 -0.8114 -0.5845
vn -0.7717 0.2507 -0.5845
vn -0.7717 -0.2507 -0.5845
s 1
f 1/1/1 2/2/2 3/3/3
f 4/4/4 5/5/5 3/3/3
f 4/4/4 2/2/2 6/6/6
f 3/3/3 2/2/2 4/4/4
f 7/7/7 8/8/8 6/6/6
f 7/7/7 2/2/2 9/9/9
f 6/6/6 2/2/2 7/7/7
f 9/9/9 10/10/10 11/11/11
f 12/12/12 2/2/2 13/13/13
f 9/9/9 2/2/2 12/12/12
f 14/14/14 15/15/15 13/13/13
f 13/13/13 2/2/2 14/14/14
f 16/16/16 2/2/2 1/1/1
f 14/14/14 2/2/2 16/16/16
f 17/17/17 18/18/18 19/19/19
f 20/20/20 21/21/21 22/22/22
f 6/6/6 23/23/23 4/4/4
f 24/24/24 25/25/25 17/17/17
f 9/9/9 26/26/26 7/7/7
f 22/22/22 27/27/27 28/28/28
f 13/13/13 10/29/10 12/12/12
f 29/30/29 30/31/30 24/24/24
f 1/1/1 31/32/31 16/16/16
f 3/3/3 32/33/32 1/1/1
f 20/20/20 31/34/31 32/35/32
f 19/19/19 32/35/32 5/36/5
f 19/19/19 23/37/23 17/17/17
f 17/17/17 8/38/8 24/24/24
f 24/24/24 26/39/26 29/30/29
f 29/30/29 11/40/11 33/41/33
f 33/41/33 10/42/10 34/43/34
f 34/43/34 15/44/15 35/45/35
f 28/28/28 15/44/15 36/46/36
f 22/22/22 36/46/36 31/34/31
f 16/16/16 36/47/36 14/14/14
f 37/48/37 21/21/21 38/49/38
f 18/18/18 37/48/37 38/49/38
f 30/31/30 37/48/37 25/25/25
f 39/50/39 37/48/37 40/51/40
f 41/52/41 37/48/37 42/53/42
f 19/19/19 38/49/38 20/20/20
f 28/28/28 41/52/41 35/45/35
f 35/45/35 42/53/42 34/43/34
f 34/43/34 39/50/39 33/41/33
f 29/30/29 39/50/39 40/51/40
f 4/4/4 23/54/23 5/5/5
f 7/7/7 26/55/26 8/8/8
f 9/9/9 12/12/12 10/10/10
f 14/14/14 36/56/36 15/15/15
f 17/17/17 25/25/25 18/18/18
f 20/20/20 38/49/38 21/21/21
f 6/6/6 8/57/8 23/23/23
f 24/24/24 30/31/30 25/25/25
f 9/9/9 11/58/11 26/26/26
f 22/22/22 21/21/21 27/27/27
f 13/13/13 15/59/15 10/29/10
f 29/30/29 40/51/40 30/31/30
f 1/1/1 32/60/32 31/32/31
f 3/3/3 5/61/5 32/33/32
f 20/20/20 22/22/22 31/34/31
f 19/19/19 20/20/20 32/35/32
f 19/19/19 5/36/5 23/37/23
f 17/17/17 23/37/23 8/38/8
f 24/24/24 8/38/8 26/39/26
f 29/30/29 26/39/26 11/40/11
f 33/41/33 11/40/11 10/42/10
f 34/43/34 10/42/10 15/44/15
f 28/28/28 35/45/35 15/44/15
f 22/22/22 28/28/28 36/46/36
f 16/16/16 31/62/31 36/47/36
f 37/48/37 27/27/27 21/21/21
f 18/18/18 25/25/25 37/48/37
f 30/31/30 40/51/40 37/48/37
f 39/50/39 42/53/42 37/48/37
f 41/52/41 27/27/27 37/48/37
f 19/19/19 18/18/18 38/49/38
f 28/28/28 27/27/27 41/52/41
f 35/45/35 41/52/41 42/53/42
f 34/43/34 42/53/42 39/50/39
f 29/30/29 33/41/33 39/50/39
